<?xml version="1.0" standalone="no"?>
<!DOCTYPE svg PUBLIC "-//W3C//DTD SVG 1.1//EN" "http://www.w3.org/Graphics/SVG/1.1/DTD/svg11.dtd">
<svg width="128mm" height="9mm" viewBox="2 -7 128 9" xmlns="http://www.w3.org/2000/svg" version="1.1">
<title>OpenSCAD Model</title>
<path d="
M 128.39,1.96156 L 128.765,1.84775 L 129.111,1.66293 L 129.414,1.4142 L 129.663,1.11113 L 129.848,0.765366
 L 129.962,0.390167 L 130,-0 L 130,-4.5282 L 129.962,-4.91838 L 129.848,-5.29356 L 129.663,-5.63934
 L 129.414,-5.94241 L 129.111,-6.19113 L 128.765,-6.37596 L 128.39,-6.48976 L 128,-6.5282 L 4,-6.5282
 L 3.60982,-6.48976 L 3.23462,-6.37596 L 2.88885,-6.19113 L 2.58578,-5.94241 L 2.33705,-5.63934 L 2.15224,-5.29356
 L 2.03842,-4.91838 L 2,-4.5282 L 2,-0 L 2.03842,0.390167 L 2.15224,0.765366 L 2.33705,1.11113
 L 2.58578,1.4142 L 2.88885,1.66293 L 3.23462,1.84775 L 3.60982,1.96156 L 4,2 L 128,2
 z
M 13.6781,-0.917603 L 13.3686,-1.01149 L 13.0833,-1.16397 L 12.8333,-1.36917 L 12.6281,-1.6192 L 12.4756,-1.90446
 L 12.3817,-2.21399 L 12.35,-2.53589 L 12.3817,-2.85779 L 12.4756,-3.16731 L 12.6281,-3.45258 L 12.8333,-3.70262
 L 13.0833,-3.90782 L 13.3686,-4.06029 L 13.6781,-4.15419 L 14,-4.1859 L 14.3219,-4.15419 L 14.6314,-4.06029
 L 14.9167,-3.90782 L 15.1667,-3.70262 L 15.3719,-3.45258 L 15.5244,-3.16731 L 15.6183,-2.85779 L 15.65,-2.53589
 L 15.6183,-2.21399 L 15.5244,-1.90446 L 15.3719,-1.6192 L 15.1667,-1.36917 L 14.9167,-1.16397 L 14.6314,-1.01149
 L 14.3219,-0.917603 L 14,-0.885895 z
M 117.678,-0.917603 L 117.369,-1.01149 L 117.083,-1.16397 L 116.833,-1.36917 L 116.628,-1.6192 L 116.476,-1.90446
 L 116.382,-2.21399 L 116.35,-2.53589 L 116.382,-2.85779 L 116.476,-3.16731 L 116.628,-3.45258 L 116.833,-3.70262
 L 117.083,-3.90782 L 117.369,-4.06029 L 117.678,-4.15419 L 118,-4.1859 L 118.322,-4.15419 L 118.631,-4.06029
 L 118.917,-3.90782 L 119.167,-3.70262 L 119.372,-3.45258 L 119.524,-3.16731 L 119.618,-2.85779 L 119.65,-2.53589
 L 119.618,-2.21399 L 119.524,-1.90446 L 119.372,-1.6192 L 119.167,-1.36917 L 118.917,-1.16397 L 118.631,-1.01149
 L 118.322,-0.917603 L 118,-0.885895 z
M 32.6314,-4.06029 L 32.9167,-3.90782 L 33.1667,-3.70262 L 33.3719,-3.45258 L 33.5244,-3.16731 L 33.6183,-2.85779
 L 33.65,-2.53589 L 33.6183,-2.21399 L 33.5244,-1.90446 L 33.3719,-1.6192 L 33.1667,-1.36917 L 32.9167,-1.16397
 L 32.6314,-1.01149 L 32.3219,-0.917603 L 32,-0.885895 L 31.6781,-0.917603 L 31.3686,-1.01149 L 31.0833,-1.16397
 L 30.8333,-1.36917 L 30.6281,-1.6192 L 30.4756,-1.90446 L 30.3817,-2.21399 L 30.35,-2.53589 L 30.3817,-2.85779
 L 30.4756,-3.16731 L 30.6281,-3.45258 L 30.8333,-3.70262 L 31.0833,-3.90782 L 31.3686,-4.06029 L 31.6781,-4.15419
 L 32,-4.1859 L 32.3219,-4.15419 z
M 99.6781,-0.917603 L 99.3686,-1.01149 L 99.0833,-1.16397 L 98.8333,-1.36917 L 98.6281,-1.6192 L 98.4756,-1.90446
 L 98.3817,-2.21399 L 98.35,-2.53589 L 98.3817,-2.85779 L 98.4756,-3.16731 L 98.6281,-3.45258 L 98.8333,-3.70262
 L 99.0833,-3.90782 L 99.3686,-4.06029 L 99.6781,-4.15419 L 100,-4.1859 L 100.322,-4.15419 L 100.631,-4.06029
 L 100.917,-3.90782 L 101.167,-3.70262 L 101.372,-3.45258 L 101.524,-3.16731 L 101.618,-2.85779 L 101.65,-2.53589
 L 101.618,-2.21399 L 101.524,-1.90446 L 101.372,-1.6192 L 101.167,-1.36917 L 100.917,-1.16397 L 100.631,-1.01149
 L 100.322,-0.917603 L 100,-0.885895 z
M 43.9025,-2.0455 L 43.8087,-2.07394 L 43.7222,-2.12016 L 43.6464,-2.18234 L 43.5843,-2.2581 L 43.5381,-2.34454
 L 43.5096,-2.43834 L 43.5,-2.53589 L 43.5096,-2.63344 L 43.5381,-2.72723 L 43.5843,-2.81367 L 43.6464,-2.88945
 L 43.7222,-2.95163 L 43.8087,-2.99783 L 43.9025,-3.02629 L 44,-3.03589 L 44.0975,-3.02629 L 44.1913,-2.99783
 L 44.2778,-2.95163 L 44.3535,-2.88945 L 44.4157,-2.81367 L 44.4619,-2.72723 L 44.4904,-2.63344 L 44.5,-2.53589
 L 44.4904,-2.43834 L 44.4619,-2.34454 L 44.4157,-2.2581 L 44.3535,-2.18234 L 44.2778,-2.12016 L 44.1913,-2.07394
 L 44.0975,-2.0455 L 44,-2.03589 z
M 5.90245,-2.0455 L 5.80865,-2.07394 L 5.72221,-2.12016 L 5.64644,-2.18234 L 5.58426,-2.2581 L 5.53806,-2.34454
 L 5.5096,-2.43834 L 5.5,-2.53589 L 5.5096,-2.63344 L 5.53806,-2.72723 L 5.58426,-2.81367 L 5.64644,-2.88945
 L 5.72221,-2.95163 L 5.80865,-2.99783 L 5.90245,-3.02629 L 6,-3.03589 L 6.09753,-3.02629 L 6.19133,-2.99783
 L 6.27777,-2.95163 L 6.35355,-2.88945 L 6.41573,-2.81367 L 6.46193,-2.72723 L 6.49039,-2.63344 L 6.5,-2.53589
 L 6.49039,-2.43834 L 6.46193,-2.34454 L 6.41573,-2.2581 L 6.35355,-2.18234 L 6.27777,-2.12016 L 6.19133,-2.07394
 L 6.09753,-2.0455 L 6,-2.03589 z
M 125.902,-2.0455 L 125.809,-2.07394 L 125.722,-2.12016 L 125.646,-2.18234 L 125.584,-2.2581 L 125.538,-2.34454
 L 125.51,-2.43834 L 125.5,-2.53589 L 125.51,-2.63344 L 125.538,-2.72723 L 125.584,-2.81367 L 125.646,-2.88945
 L 125.722,-2.95163 L 125.809,-2.99783 L 125.902,-3.02629 L 126,-3.03589 L 126.098,-3.02629 L 126.191,-2.99783
 L 126.278,-2.95163 L 126.354,-2.88945 L 126.416,-2.81367 L 126.462,-2.72723 L 126.49,-2.63344 L 126.5,-2.53589
 L 126.49,-2.43834 L 126.462,-2.34454 L 126.416,-2.2581 L 126.354,-2.18234 L 126.278,-2.12016 L 126.191,-2.07394
 L 126.098,-2.0455 L 126,-2.03589 z
M 21.9025,-2.0455 L 21.8087,-2.07394 L 21.7222,-2.12016 L 21.6464,-2.18234 L 21.5843,-2.2581 L 21.5381,-2.34454
 L 21.5096,-2.43834 L 21.5,-2.53589 L 21.5096,-2.63344 L 21.5381,-2.72723 L 21.5843,-2.81367 L 21.6464,-2.88945
 L 21.7222,-2.95163 L 21.8087,-2.99783 L 21.9025,-3.02629 L 22,-3.03589 L 22.0975,-3.02629 L 22.1913,-2.99783
 L 22.2778,-2.95163 L 22.3535,-2.88945 L 22.4157,-2.81367 L 22.4619,-2.72723 L 22.4904,-2.63344 L 22.5,-2.53589
 L 22.4904,-2.43834 L 22.4619,-2.34454 L 22.4157,-2.2581 L 22.3535,-2.18234 L 22.2778,-2.12016 L 22.1913,-2.07394
 L 22.0975,-2.0455 L 22,-2.03589 z
M 79.9025,-2.0455 L 79.8087,-2.07394 L 79.7222,-2.12016 L 79.6464,-2.18234 L 79.5843,-2.2581 L 79.5381,-2.34454
 L 79.5096,-2.43834 L 79.5,-2.53589 L 79.5096,-2.63344 L 79.5381,-2.72723 L 79.5843,-2.81367 L 79.6464,-2.88945
 L 79.7222,-2.95163 L 79.8087,-2.99783 L 79.9025,-3.02629 L 80,-3.03589 L 80.0975,-3.02629 L 80.1913,-2.99783
 L 80.2778,-2.95163 L 80.3535,-2.88945 L 80.4157,-2.81367 L 80.4619,-2.72723 L 80.4904,-2.63344 L 80.5,-2.53589
 L 80.4904,-2.43834 L 80.4619,-2.34454 L 80.4157,-2.2581 L 80.3535,-2.18234 L 80.2778,-2.12016 L 80.1913,-2.07394
 L 80.0975,-2.0455 L 80,-2.03589 z
M 109.902,-2.0455 L 109.809,-2.07394 L 109.722,-2.12016 L 109.646,-2.18234 L 109.584,-2.2581 L 109.538,-2.34454
 L 109.51,-2.43834 L 109.5,-2.53589 L 109.51,-2.63344 L 109.538,-2.72723 L 109.584,-2.81367 L 109.646,-2.88945
 L 109.722,-2.95163 L 109.809,-2.99783 L 109.902,-3.02629 L 110,-3.03589 L 110.098,-3.02629 L 110.191,-2.99783
 L 110.278,-2.95163 L 110.354,-2.88945 L 110.416,-2.81367 L 110.462,-2.72723 L 110.49,-2.63344 L 110.5,-2.53589
 L 110.49,-2.43834 L 110.462,-2.34454 L 110.416,-2.2581 L 110.354,-2.18234 L 110.278,-2.12016 L 110.191,-2.07394
 L 110.098,-2.0455 L 110,-2.03589 z
M 61.9025,-1.90961 L 61.8087,-1.93805 L 61.7222,-1.98425 L 61.6464,-2.04643 L 61.5843,-2.12221 L 61.5381,-2.20865
 L 61.5096,-2.30244 L 61.5,-2.39999 L 61.5096,-2.49754 L 61.5381,-2.59134 L 61.5843,-2.67778 L 61.6464,-2.75354
 L 61.7222,-2.81572 L 61.8087,-2.86194 L 61.9025,-2.89038 L 62,-2.89999 L 62.0975,-2.89038 L 62.1913,-2.86194
 L 62.2778,-2.81572 L 62.3535,-2.75354 L 62.4157,-2.67778 L 62.4619,-2.59134 L 62.4904,-2.49754 L 62.5,-2.39999
 L 62.4904,-2.30244 L 62.4619,-2.20865 L 62.4157,-2.12221 L 62.3535,-2.04643 L 62.2778,-1.98425 L 62.1913,-1.93805
 L 62.0975,-1.90961 L 62,-1.89999 z
" stroke="black" fill="lightgray" stroke-width="0.5"/>
</svg>
